<svg xmlns="http://www.w3.org/2000/svg" style="display: none;">
  
    <symbol id="fontastic-mine-truck" viewBox="0 0 512 512">
      <path d="m393 275c-2 0-3 0-5 0-22 0-41 17-44 40-2 24 15 46 40 48 1 0 3 0 4 0 0 0 0 0 0 0 23 0 42-17 44-39 3-24-15-46-39-49z m24 47c-1 15-14 27-29 27-1 0-2 0-3-1-16-1-28-16-26-32 2-15 14-26 29-26 1 0 2 0 3 0 17 2 28 16 26 32z m-278-47c-5 0-10 1-15 3-11 4-20 11-25 22-5 11-6 23-2 34 6 18 23 29 42 29 5 0 10 0 14-2 12-4 20-12 26-22 5-11 5-23 2-34-7-18-23-30-42-30z m26 57c-3 7-9 12-16 15-4 1-7 2-10 2-13 0-24-8-28-20-2-7-2-15 2-22 3-8 9-13 16-15 3-1 7-2 10-2 12 0 24 8 28 20 2 7 2 15-2 22z m345-226c-1-2-3-3-5-3l-199 0c-4 0-8 3-8 8l0 19-291 0c-4 0-7 3-7 7l0 25c0 3 1 5 4 7l113 64c-18 4-34 14-46 28-15 18-23 41-21 65 1 24 12 45 30 61 17 14 37 22 59 22 0 0 0 0 0 0 26 0 51-11 68-31 7-9 13-18 16-29l81 0c5 15 14 28 26 38 16 14 37 22 58 22 0 0 0 0 0 0 26 0 51-12 68-31 8-9 13-19 17-30l23 0c4 0 7-3 7-7l0-114c0-4-3-8-7-8l-28 0 0-69 29 0c3 0 6-2 7-5l8-33c0-2 0-4-2-6z m-315 262c-14 17-34 26-56 26-18 0-35-6-49-18-15-13-24-31-26-51-1-20 5-39 18-55 15-16 35-25 57-25 18 0 35 6 49 18 15 13 24 31 25 51 2 20-4 39-18 54z m250 0c-14 17-35 26-57 26-18 0-35-6-49-18-15-13-24-31-25-51-2-20 5-39 18-54 14-17 35-26 56-26 18 0 36 6 49 18 15 13 24 31 26 51 1 20-5 39-18 54z m44-134l0 99-12 0c1-7 1-13 1-20-2-24-13-46-31-61-9-8-20-14-31-18l73 0z m-85-15l0-38 49-20 0 58-49 0z m87-83l-114 0c-5 0-8 3-8 7l0 76c-22 4-43 16-58 34-7 8-13 18-18 29l-39-24c-1-1-3-1-5-1l-38 9c-4-5-9-10-14-14-15-14-34-21-55-22l-127-72 0-13 57 0 0 28c0 4 3 7 7 7 4 0 7-3 7-7l0-28 23 0 0 47c0 4 4 7 8 7 4 0 7-3 7-7l0-47 23 0 0 64c0 4 3 7 8 7 4 0 7-3 7-7l0-64 23 0 0 76c0 4 3 7 7 7 4 0 8-3 8-7l0-76 23 0 0 93c0 4 3 8 7 8 4 0 7-4 7-8l0-93 23 0 0 93c0 4 4 8 8 8 4 0 7-4 7-8l0-93 23 0 0 79c0 4 3 7 8 7 4 0 7-3 7-7l0-106 182 0z"/>
    </symbol>
  
    <symbol id="fontastic-engineers" viewBox="0 0 512 512">
      <path d="m391 112c0 0-2 9-3 14-1 7-4 26-16 35l-14 33-37-10c0 0 8-42 9-48 1-7-2-22-1-38 1-15 58-9 62 14z m0 0c0 0-2 9-3 14-1 7-4 26-16 35l0 39c-19 60-69 44-50-16 0 0 8-42 9-48 2-7-2-22-1-38 0-15 57-9 61 14z m-61-16l-8-9c0 0 7-30 32-33 24-4 46 13 45 40 0 0 2 7-1 11-4 4-54 4-68-9z m-8-9c0 0 5 5 13 7 7 2 49 4 57 7 9 2 6-5 7-8 0 0 3 13 3 17 0 4-3 4-7 4-3 0-38-3-51-6-13-3-14-2-17-3-4-1-8-8-8-11-1-2 3-7 3-7z m49 75c0 0-5 6-16 5-11-1-24-17-26-30 0 0-2 17 14 36 6 6 12 11 17 14z m-28 9c0 0 10 15 7 29 0 0 3-13 3-18 0-6 8-15 8-15l13 22-30 100-36-8 9-111z m-54 340c1-6 7-28 12-40 5-12 12-30 12-30 0 0 2 1 6 11 3 10 15 50 17 59l57 0c5-22 3-99 3-99l-51-65c0 0-81 11-98 51-16 36-10 102-9 114l51 0z m39-405c-3 0-5 5-4 11 1 6 3 10 6 10 3 0 5-5 5-11-1-6-4-10-7-10z m-17 55c0 0-2-1-9 3-9 5-24 6-28 6-4 1-4 1-4 1 0 0 21 44 17 66-5 22-47 137-53 151-4 14-6 21-6 21 0 0 25 19 35 22 11 3 19 5 27-11 7-16 33-83 36-112 2-29-9-141-9-141z m-15 153c0 0-15-2-19-18-3-17 19 3 19 18z m80-158c0 0-4 7-15 10l-1 25 16-27z m44 271c0 0-3 5-21 8-19 3-29 5-29 5 0 0-17 3-21-9-5-12-24-78-24-108 0-31 58-156 58-156 0 0 10 5 15 9 4 4 3 3 7 8 4 4 18 8 18 8 0 0-18 11-27 35-9 24 24 200 24 200z m11-202c0 23-4 75-15 92-6 7-9 13-12 16-3 3-6 4-10 5-4 1-41-3-69-6-17-2-30-3-30-3l-2-42c0 0 22 1 41 1 8 0 15 0 18 0 9 0 21-8 25-9 3-2 3-15 8-25 3-10 11-27 11-28 9-23 27-35 27-35 0 0 8 11 8 34z m-55-67c0 0-4 10-6 14-2 4-14 27-17 33-3 6-12 21-20 54-9 34-8 64-8 64 0 0 10-44 26-73 16-29 37-60 37-60l-9-5 9-1c0 0 0-9-3-14-3-6-7-8-8-10-1-2-1-2-1-2z m-47-16c0 0 4 20 14 29l-2 3-4-2c0 0-10 6-10 19 0 0-5-21-5-29 0-6 4-17 7-20z m-2 4c0 0-4 4-7 9-3 5-9 6-9 6l-6 11 6 3-10 2c0 0 16 76 20 95 5 18 4 36 4 36 0 0 8-55 4-86-2-33-6-64-2-76z m32 152c0 0-14 1-32 2-20 1-45 1-60-1-3-1-6-1-8-2-22-9-18-43-18-43 0 0 15-59 20-70 5-12 10-12 10-12 0 0 21 44 17 66-1 3-2 9-5 15 0 0 10 4 21 7 10 4 9 0 16 0 1 0 3 0 6 0 12 0 33 3 33 3 4 7 0 35 0 35z m-66-39c0 0-4-19-5-20-1-2-2-2-3 0l-4-5c0 0-4-1-3 4 0 0-3-1-3 3 0 5 2 7 2 7 0 0-3 1-1 8 2 8 2 10 2 10z m-7-17c-1-2-1-3-1-3 0 0 0 1 1 3 0 1 0 2 1 4 0 1 1 2 1 3 0 1 0 1 1 2 0 1 1 1 1 1 0 1 1 2 1 3 0 0 0 1 1 1l0-1c0-1-1-2-1-3 0 0 0-1-1-1 0-1 0-1-1-2 0-1-1-2-1-3-1-3-1-4-2-4z m-7-5c0 0 0 1 0 0 1 1 1 2 2 3 0 1 1 2 1 3 0 1 0 1 1 3 0 1 0 1 2 2 0 1 1 2 1 3 0 1 1 2 1 3 1 2 1 3 1 3 0 0-1-1-1-3 0-1-1-2-1-3 0-1-1-2-1-3 0-1 0-1-2-2 0-2 0-2-1-3 0-1-1-2-1-3-2-2-2-3-2-3z m-2 11c0 0 1 0 0 0 1 0 1 0 1 0l1 0 0 1c0 1 0 2 1 2 0 1 0 2 1 2 0 1 0 1 0 2 0 1 0 2 0 2 0 0 0-1-1-2 0-1 0-1-1-2 0-1 0-2-1-2 0-1 0-2-1-2l0-1c2 0 1 0 0 0 1 0 0 0 0 0z m138 65c0 0 0-1-3-4-2-1-10-6-13-9-4-3-9-8-12-10-3-2-5-1-11-1-1 0-2 0-3 0l0 16 5 0c1-1 1-1 2-2 3-1 7 0 8 0 0 0 15 9 17 9 0 0 9 7 14 3z m-43 40l83-16c0 0 59-22 44-89l-117 66-108 18-3 48z m-45-62c0 0 24 13 28 15 4 2 9 5 17 5 7 0 19 4 22 5 5 1 8-2 5-5-4-5-8-6-8-6l-13-3c0 0 4-3 6-4 2-1 6 0 7 0 0 0 12 8 16 10 0 0 9 11 15 4l-4-4c0 0-1-1-3-2-3-1-10-7-14-10-3-4-9-9-12-11-3-2-4-1-11-1-5 0-17 0-21-1-4-1-17-6-17-6l-16 4z m-194 220l4-15c0 6 2 12 2 15l82 0c1-4 2-16 0-33-4-22-23-77-23-77l3-21-70 2c0 0-72 23-80 54-6 28-1 67 0 76l82 0z m0 0l4-15c0 6 2 12 2 15l82 0c1-4 2-16 0-33-4-22-25-104-25-104l-65 7c0 0-72 23-80 54-6 28-1 67 0 76z m50-361c0 0 12 10 16 21 5 11 3 16 6 18 2 3 5 4 6 7 1 4 15 25 15 25 0 0 13 5 15 10 2 4 2 6 2 6 0 0 3-1 6 1 4 2 6 2 9 4 4 1 4 0 5 4 2 2 31 15 41 19 9 3 37 12 37 12 0 0-13 3-10 45 0 0-17-6-32-13-16-6-30-8-40-13-9-6-17-10-32-15-14-6-23-12-23-12 0 0-25-114-21-119z m28 274l-2-2c-7-25-13-49-13-49l-4 0c6-24 4-70 0-91-7-41-14-83-25-102-10-18-22-39-22-39 0 0 29 0 38 8 0 0 13 13 18 37 6 22 6 72 6 80 0 7 2 62 5 77 2 11 6 54 9 73 0 5-5 9-10 8z m-11-345c0 0-5 9-6 10 0 0 0 2 2 6 2 4 4 10 4 10 0 0 1 4-3 5-4 1-6 3-6 4 0 1 3 5 0 7 0 0 2 2 0 5-2 3-7 4-7 10-1 4-2 10-16 9-14-1-18 1-20 6-2 4-5 19-1 35 4 16 4 16 4 16l-56-66c0 0 10-14 13-26 2-12 8-54 8-54z m-19 142c-1-2 0-5 0-7-7-15-14-29-17-45 0-1 0-1 0-2l-6-8-13 19c0 0-2-4-8-6-4-2-30-22-30-22l-20 1 41 236c0 0 0 0 30 0 30 0 40-9 40-9 0 0 1-92-17-157z m31 122c0 0-12-53-19-70-8-18-18-70-25-82-6-12-20-35-20-35l2-9c1 0 2-1 3-1 7 13 32 62 44 108 14 51 15 89 15 89z m-121-210c0 0-7 6-15 10-9 4-12 3-20 8-7 4-30 19-36 31 0 0 11-14 24-9 13 5 37 58 39 74 2 16-43 127-54 165-12 37-9 65 3 72 12 8 62 44 89 13 28-31 38-154 38-154 0 0 2-56-14-91-16-35-54-119-54-119z m3-5l6-5c0 0 8 19 16 28 9 8 23 20 23 20 0 0-6 1-11-1l-11 12c0 0-24-52-23-54z m10-14c0 0 14-5 23-24 7-19 19-9 22-5 3 4 4 14 2 20l9 0c0 0 0-23 7-28 8-5 32 5 32 5 0 0 9-3 6-10-4-8-77-34-87-30-9 5-21 15-19 23 2 9 6 26 6 34 0 10-2 13-1 15z m35-41c-6 0-10 7-10 16 0 9 5 16 11 16 6 0 11-8 10-17 0-8-5-15-11-15z m-51-22l-1-5c0 0 8-41 50-46 43-4 68 34 68 62 0 0-5 8-5 9-1 0-76 8-112-20z m-1-5c0 0 55 23 96 20 0 0 17 0 22-5 0 0-1 2 0 5 1 4 16 12 16 14 0 3-7 8-19 5-11-4-25-3-37-5-11-2-55-9-78-19-3 0-4-4-3-6 1-4 2-6 3-9z m67 239c-6-19-19-71-29-100-11-29-25-47-25-52-1-6 3-16 3-16 0 0-11 14-16 19 0 0 0 0 0 1-2 3-3 6-2 10 2 7 6 13 6 13l14 9-9 8c0 0 1 1 14 17 13 16 34 70 42 89 9 19 8 60 8 60 0 0 1-39-6-58z m-2-139c0 0 10 16 10 20 0 3-8 8-8 8 0 0-5 4-6 10-1 5 1 16 1 16-2-10-4-16-5-25 1 0-2-25 8-29z m0 0c0 0 10 16 10 20 0 3-8 8-8 8 0 0-5 4-6 10-1 5 1 16 1 16-2-10-4-16-5-25 1 0-2-25 8-29z m7-1c0 0-18-9-25-28 0 0 2 19 14 34l0-1c1-3 3-4 11-5z m-88 303l120-28 144-129c0 0 51 62 120 46l-309 138c0 0-38 10-75-27z m58-75l19 12c0 0 9 2 15 4 4 1 10 6 13 8 1 1 2 2 2 4l1 7c0 0 10 7 13 10 3 3 7 3 6 9 0 0 2 1 2 4 0 3-4 5-4 5 0 0-2 4-6 5-5 1-14 2-14 2 0 0-3 2-10 3-6 1-13-1-18-2-6-1-14-4-15-8-1-3-4-7-5-10-1-4-1-8-1-8 0 0-4-5-8-7-3-2-23-17-23-17 0 0 21-29 33-21z m70 55c0 0-1 2-2 3-1 1-4 2-6 1-2-1-11-6-14-7-3-3-8-7-11-8-2-2-6-3-6-3 0 0 2 3 4 4 2 1 8 3 11 6 3 2 8 5 10 6 3 1 6 3 9 3 3 0 4-3 5-5z m-2 9c0 0-1 1-5 3-3 1-10 0-12 0-2 0-4 1-7-2-4-1-14-8-15-9-1-1-7-2-7-2 0 0 3 2 8 4 4 2 9 5 11 6 3 1 5 4 9 4 4-1 14 1 18-4z m-29 7c-5-2-12-6-15-7-3-1-8-3-7-2 1 1 10 6 13 7 3 1 10 5 16 3 1 0 1-1 1-1 0 1-2 2-8 0z m-5-51c0 0 1 0 0 0 1 1 1 1 1 2 0 0 0 1 1 1 0 1 1 2 2 3l1 1c0 0 1 1 2 1 2 1 3 2 4 2 1 1 2 1 3 2 1 1 2 1 2 1l1 2c0 0 0 0-1 0-1 0-1-2-2-2-1-1-2-1-3-2-1 0-1-1-2-1-2 0-2-1-3-1-1 0-1-1-2-1-1 0-1-1-1-1-1-1-1-2-2-3 0-1 0-1 0-1 0-2 0-2-1-3z m-28-16c0 0-11 2-19 15-6 13-7 34-7 34 0 0-34-16-41-24-3-4-16-17-25-30-8-9-15-19-17-24-5-12-5-39-4-44 1-4-7-34-10-45-4-10 3-39 3-39 0 0-1-27 5-38 0 0 11-14 24-9 13 5 37 58 39 74 2 8-2 13-2 25 0 12-6 23-3 33 3 12 0 17 3 23 2 4 18 20 27 25 7 5 27 24 27 24z"/>
    </symbol>
  
    <symbol id="fontastic-meeting" viewBox="0 0 512 512">
      <path d="m273 454c-10 0-19-9-19-19l0-151c0-10 9-19 19-19 11 0 19 9 19 19l0 151c0 10-8 19-19 19z m-45 0c-11 0-19-9-19-19l0-151c0-10 8-19 19-19 10 0 18 9 18 19l0 151c0 10-8 19-18 19z m170-322c-5-7-15-8-22-2l-39 33-35-26c-2-2-6-3-9-3l-84 0c-12 0-24 6-30 17l-11 21-33-48c-5-7-15-8-22-3-7 5-9 14-4 21l48 68c7 10 22 9 27-1l23-43c0 0 1-1 2-1l0 119 83 0 0-115 36 27c6 5 14 4 20 0l48-42c7-6 8-16 2-22z m0 0c-5-7-15-8-22-2l-39 33-35-26c-2-2-6-3-9-3l-43 0 0 150 42 0 0-115 36 27c6 5 14 4 20 0l48-42c7-6 8-16 2-22z m-263-8c-5-7-15-8-22-3-7 5-9 14-4 21z m91 10l24 62 24-62z m35 21l-6-10 5-8c0-1 0-2 0-2 0-1-1-1-2-1l-15 0c-1 0-2 0-2 1-1 0-1 1 0 2l4 8-5 10c-1 1-1 3-1 5l4 16 7 20 8-20 3-16c1-2 1-4 0-5z m-35-21l24 62 24-62z m35 21l-6-10 5-8c0-1 0-2 0-2 0-1-1-1-2-1l-15 0c-1 0-2 0-2 1-1 0-1 1 0 2l4 8-5 10c-1 1-1 3-1 5l4 16 7 20 8-20 3-16c1-2 1-4 0-5z m-147-6l26-18-5-7-26 18z m256-14l20 25 6-6-20-24z m-87-44c0 18-14 32-32 32-18 0-33-14-33-32 0-18 15-33 33-33 18 0 32 15 32 33z m115 41c-5-7-15-8-22-2l20 24c7-6 8-16 2-22z m-137 23l-6-10 5-8c0-1 0-2 0-2 0-1-1-1-2-1l-8 0 0 62 8-20 3-16c1-2 1-4 0-5z m-159 299c-10 0-19-9-19-19l0-150c0-10 9-18 19-18 10 0 19 8 19 18l0 150c0 10-9 19-19 19z m-45 0c-11 0-19-9-19-19l0-150c0-10 8-18 19-18 10 0 19 8 19 18l0 150c0 10-9 19-19 19z m102-282c0-20-17-36-38-36-10 0-71 0-83 0-21 0-38 16-38 36 0 0 0 0 0 0l0 115c0 9 7 16 16 16 8 0 15-7 15-16l0-115c0-2 3-5 7-5l0 0 0 118 83 0 0-118 0 0c4 0 7 3 7 5l0 115c0 9 7 16 15 16 9 0 16-7 16-16l0-115c0 0 0 0 0 0z m0 0c0-20-17-36-38-36-5 0-37 0-42 0l0 149 42 0 0-118 0 0c4 0 7 3 7 5l0 115c0 9 7 16 15 16 9 0 16-7 16-16l0-115c0 0 0 0 0 0z m-159 107l0 8c0 9 7 16 16 16 8 0 15-7 15-16l0-8z m128 0l0 8c0 9 7 16 15 16 9 0 16-7 16-16l0-8z m-128 8l0 0c0 9 7 16 16 16 8 0 15-7 15-16l0 0z m128 0l0 0c0 9 7 16 15 16 9 0 16-7 16-16l0 0z m-16-194c0 18-15 33-33 33-17 0-32-15-32-33 0-18 15-32 32-32 18 0 33 14 33 32z m-56 43l23 62 24-62z m34 21l-6-10 5-8c1-2 0-3-2-3l-15 0c-2 0-3 1-2 3l4 8-5 10c-1 1-1 3-1 4l4 17 7 20 8-20 3-17c1-1 0-3 0-4z m0 0l-6-10 5-8c1-2 0-3-2-3l-8 0 0 62 8-20 3-17c1-1 0-3 0-4z m1 27l21 0 0 6-21 0z m364 270c-10 0-18-9-18-19l0-150c0-10 8-18 18-18 11 0 19 8 19 18l0 150c0 10-8 19-19 19z m-45 0c-10 0-19-9-19-19l0-150c0-10 9-18 19-18 10 0 19 8 19 18l0 150c0 10-9 19-19 19z m102-282c0-20-17-36-37-36-11 0-72 0-84 0-21 0-38 16-38 36 0 0 0 0 0 0l0 115c0 9 7 16 16 16 8 0 15-7 15-16l0-114c1-3 3-6 7-6l0 0 0 118 83 0 0-118 1 0c3 0 6 3 6 6l0 114c0 9 7 16 15 16 9 0 16-7 16-16l0-115c0 0 0 0 0 0z m0 0c0-20-17-36-37-36-5 0-37 0-42 0l0 149 41 0 0-118 1 0c3 0 6 3 6 6l0 114c0 9 7 16 15 16 9 0 16-7 16-16l0-115c0 0 0 0 0 0z m-159 107l0 8c0 9 7 16 16 16 8 0 15-7 15-16l0-8z m128 0l0 8c0 9 7 16 15 16 9 0 16-7 16-16l0-8z m-128 8l0 0c0 9 7 16 16 16 8 0 15-7 15-16l0 0z m128 0l0 0c0 9 7 16 15 16 9 0 16-7 16-16l0 0z m-16-194c0 18-15 33-32 33-18 0-33-15-33-33 0-17 15-32 33-32 17 0 32 15 32 32z m-56 43l24 62 23-62z m34 21l-5-10 4-8c1-1 0-3-2-3l-15 0c-2 0-3 2-2 3l5 8-6 10c0 1-1 3 0 4l3 17 8 20 7-20 4-17c0-1 0-3-1-4z m0 0l-5-10 4-8c1-1 0-3-2-3l-7 0 0 62 7-20 4-17c0-1 0-3-1-4z m1 27l21 0 0 6-21 0z"/>
    </symbol>
  
    <symbol id="fontastic-004-engineer" viewBox="0 0 512 512">
      <path d="m124 185l0 45c0 77 59 158 132 158 73 0 132-81 132-158l0-45z m167-159l0-8c0-10-8-18-17-18l-36 0c-9 0-17 8-17 18l0 8c-67 16-115 71-115 142l0 17 300 0 0-17c0-71-48-126-115-142m0 45c-5 0-9-4-9-9l0-27c0-5 4-9 9-9 6 0 9 4 9 9l0 27c0 5-3 9-9 9m-70 0c-6 0-9-4-9-9l0-27c0-5 3-9 9-9 5 0 9 4 9 9l0 27c0 5-4 9-9 9m203 123l-336 0c-5 0-9-3-9-9 0-5 4-8 9-8l336 0c5 0 9 3 9 8 0 6-4 9-9 9m-133 274l-70 0 35-80z m-79 44l9-44 70 0 9 44z m-50-176l-3-1-9 36 71 97 35-80c-37 0-71-21-94-52m188 0c-23 31-57 52-94 52l35 80 71-97-9-36z m141 103c-49-26-96-45-138-51l-4 0-58 80 9 44-3 0 215 0 0-38c0-15-8-28-21-35m-328-51l-4 0c-42 6-89 25-138 51-13 7-21 20-21 35l0 38 212 0 9-44z m-36-295l67 13-13-65c-22 13-41 31-54 52m258 0l-67 13 13-65c22 13 41 31 54 52"/>
    </symbol>
  
    <symbol id="fontastic-engineering" viewBox="0 0 512 512">
      <path d="m502 152l-197 0-1-3c2-5 3-11 3-17 0-14-6-26-16-35l0-41c0-9-3-17-9-23-6-7-15-10-23-10-18 0-33 15-33 33l0 42c-9 9-14 21-14 34 0 6 1 12 3 17l-1 3-144 0 0-89c0-5-5-10-10-10-33 0-60 27-60 60l0 317c0 33 27 59 60 59l442 0c6 0 10-4 10-10l0-317c0-6-4-10-10-10z m-259-42c10-7 22-7 32-1 7 5 12 14 12 23 0 5-1 10-4 14 0 1-1 1-1 2-4 5-9 9-16 11-10 3-21-1-27-8-5-5-7-12-7-19 0-9 4-17 11-22 0 0 0 0 0 0z m95 238l-29-71c8-4 15-9 21-14l32 75z m-145-31l-23-9 18-44c6 5 13 9 22 13l-9 20z m-8 19l-10 24-6-31z m44-167c6 5 14 9 22 10 0 0 0 1 0 1l-34 79c-7-4-14-9-21-14l32-76c0 0 1 0 1 0z m41 16l1-1 2-6c7-2 12-5 17-9l32 75c0 0 0 0 0 0-7 6-14 10-21 14z m-11 26l23 54c-8 2-15 3-24 3-7 0-14-1-22-3z m-13-124l0-31c0-7 6-13 13-13 3 0 6 1 9 4 2 2 3 5 3 9l0 30c-8-2-17-2-25 1z m-226 26c0-19 13-34 30-38l0 297c-11 2-22 7-30 14z m472 356l-432 0c-22 0-40-17-40-39 0-21 18-39 40-39 5 0 10-4 10-10l0-209 135 0-24 58c-5-6-7-10-7-10-3-5-9-6-14-4-4 3-6 9-3 14 0 1 5 10 15 20l-21 50-2-1c-6-2-11 0-14 5-2 5 1 11 6 13l6 3 14 77c0 5 4 8 8 8 1 0 1 0 1 0 4 0 7-2 9-5 0 0 0 0 1 0 0-1 0-1 0-1l23-55 7 2c1 1 2 1 4 1 4 0 7-2 9-6 2-5 0-11-5-13l-7-3 18-41c8 2 18 4 29 4 0 0 0 0 0 0l1 0c0 0 0 0 0 0 11 0 22-2 31-5l34 82c2 5 8 7 13 5l12-5 6 18-79 0c-6 0-10 4-10 10 0 5 4 10 10 10l94 0c0 0 0 0 0 0 0 0 0 0 0 0l27 0c6 0 10-5 10-10 0-6-4-10-10-10l-20 0-10-25 12-5c2-1 4-3 5-6 1-2 1-5 0-7l-38-91c9-10 14-18 14-19 3-5 1-11-3-14-5-2-11-1-14 4 0 0-2 3-6 8l-24-56 179 0z m-56-73c1 4 5 7 9 7 5-1 8-3 10-7 1-4-1-9-4-11-3-3-8-3-12-1-3 3-5 8-3 12z"/>
    </symbol>
  
    <symbol id="fontastic-robot" viewBox="0 0 512 512">
      <path d="m90 212c0 0 0 0 0 0-13 0-26 5-35 15-10 9-15 22-15 35 0 28 22 50 50 50 0 0 0 0 0 0 13 0 26-5 35-15 10-9 15-22 15-35 0-28-22-50-50-50z m0 80c-17 0-30-13-30-30 0-8 3-16 9-21 5-6 13-9 21-9 17 0 30 13 30 30 0 16-14 30-30 30z m412 200c-6 0-10 4-10 10 0 6 4 10 10 10 6 0 10-4 10-10 0-6-4-10-10-10z m-46-95c4 3 10 3 14-2l40-50c3-3 3-9 0-12l-27-34 9 0c6 0 10-4 10-10l0-40c0-6-4-10-10-10l-20 0c0 0 0-72 0-73-2-11-7-21-15-29l-96-96c-3-9-7-17-14-23-11-12-27-18-43-18-16 0-31 6-42 18-6 6-10 13-13 20l-137 137c-7-2-14-3-22-3l0 0c-24 0-47 9-64 26-17 17-26 40-26 64 0 21 8 41 20 56l0 174-10 0c-6 0-10 4-10 10 0 6 4 10 10 10l452 0c6 0 10-4 10-10 0-6-4-10-10-10l-302 0 0-173c13-16 20-36 20-57l131-130 61 61 0 46-20 0c-6 0-10 4-10 10l0 40c0 6 4 10 10 10l9 0-27 34c-3 3-3 9 0 12 0 0 40 50 40 50 3 4 10 5 14 2 5-4 5-10 2-14l-35-44 32-40 25 0 0 50c0 6 4 10 10 10 6 0 10-4 10-10l0-50 25 0 32 40-35 44c-3 4-3 10 2 14z m-316 95l-40 0 0-70c0-6-4-10-10-10-6 0-10 4-10 10l0 70-40 0 0-155c14 9 32 15 50 15l0 0c18 0 35-5 50-15z m0-180c-14 13-31 20-50 20l0 0c-39 0-70-31-70-70 0-19 7-36 20-50 14-13 31-20 50-20l0 0c39 0 70 31 70 70 0 19-7 36-20 50z m37-75c-3-8-7-16-12-24 0 0 37-36 37-36 4-4 4-10 0-14-4-4-11-4-14 0l-35 35c-6-6-13-11-21-15l113-113c2 12 8 23 17 32 9 10 20 15 33 17z m127-137c-10 0-20-4-28-12-15-15-15-41 0-56 8-8 18-12 28-12 11 0 21 4 29 12 15 15 15 41 0 56-8 8-18 12-29 12z m21 17l1-1c8-3 15-8 21-14 9-8 14-19 16-31l80 80c6 6 9 13 9 21 0 8-3 16-9 21-11 12-31 12-42 0z m127 95l0 27-60 0 0-27c9 7 19 10 30 10 11 0 21-3 30-10z m30 67l-120 0 0-20 120 0z m-392 93c-6 0-10 4-10 10 0 6 4 10 10 10 6 0 10-4 10-10 0-6-4-10-10-10z m10-110c0 6-4 10-10 10-6 0-10-4-10-10 0-6 4-10 10-10 6 0 10 4 10 10z m133-120c0 6-4 10-10 10-6 0-10-4-10-10 0-6 4-10 10-10 6 0 10 4 10 10z m81-82c0 6-4 10-10 10-6 0-10-4-10-10 0-6 4-10 10-10 6 0 10 4 10 10z"/>
    </symbol>
  
    <symbol id="fontastic-safety-vest" viewBox="0 0 512 512">
      <path d="m256 31c-43 0-76-15-91-31l0 217 181 0 0-217c-15 16-47 31-90 31z m155 82l0-68c0-15-9-29-23-32l-46-13-86 207-86-207-46 13c-14 3-23 17-23 32l0 68c0 52-39 94-87 94l0 271c0 17 14 31 30 31l169 0c24 0 43-21 43-47 0 26 19 47 43 47l168 0c17 0 30-14 30-31l0-271c-47 0-86-42-86-94z m-397 299l242 0 0 43-242 0z m483 43l-241 0 0-43 241 0z m-483-142l242 0 0 43-242 0z m483 43l-241 0 0-43 241 0z m-326-29l0-324-1-3-42 11 0 316z m213 0l0-316-42-11-1 2 0 325z m-143-171l0 342c9-10 15-22 15-36 0 14 5 26 14 35l0-341z"/>
    </symbol>
  
    <symbol id="fontastic-vest" viewBox="0 0 512 512">
      <path d="m165 10c-2-6-8-10-14-10l-65 0c-8 0-15 7-15 15l0 140c0 25-20 45-45 45-8 0-15 7-15 15l0 147 230 0 0-127c0-2 0-3-1-5z m-24 307c0 8-7 15-15 15-8 0-15-7-15-15l0-56c0-8 7-15 15-15 8 0 15 7 15 15z m-130 75l230 0 0 30-230 0z m0 105c0 8 7 15 15 15l170 0c25 0 45-20 45-45l0-15-230 0z m200-447l45 134 46-134z m276 150c-25 0-45-20-45-45l0-140c0-8-7-15-15-15l-65 0c-7 0-13 4-15 10l-75 220c0 2 0 3 0 5l0 127 230 0 0-147c0-8-7-15-15-15z m-85 117c0 8-7 15-15 15-9 0-15-7-15-15l0-56c0-8 6-15 15-15 8 0 15 7 15 15z m-130 75l230 0 0 30-230 0z m0 75c0 25 20 45 45 45l170 0c8 0 15-7 15-15l0-45-230 0z"/>
    </symbol>
  
    <symbol id="fontastic-001-3d-building" viewBox="0 0 512 512">
      <path d="m335 244c0 0 0 0 0 0l-60-1c-2 0-3-1-3-3l0-94c0-1 0-2 1-3 1 0 2-1 2 0l61 11c1 1 2 2 2 3l0 84c0 1 0 2-1 3 0 0-1 0-2 0z m77 2c0 0 0 0 0 0l-43-1c-2 0-3-1-3-3l0-78c0-1 0-2 1-3 1 0 2 0 3 0l42 8c2 0 3 1 3 3l0 71c0 1-1 2-1 2-1 1-1 1-2 1z m56 2c0 0 0 0 0 0l-32-1c-1 0-3-1-3-3l0-67c0-1 1-2 1-3 1 0 2 0 3 0l32 6c1 0 2 1 2 3l0 62c0 0 0 1-1 2-1 0-1 1-2 1z m-132 109l-61 12c0 0 0 0 0 0-1 0-1 0-2-1-1 0-1-1-1-2l0-94c0-2 1-3 3-3l60-2c1 0 2 0 2 0 1 1 1 2 1 3l0 84c0 1-1 3-2 3z m133-27l-32 7c0 0-1 0-1 0 0 0-1-1-2-1 0 0-1-1-1-2l0-68c0-1 2-2 3-3l32-1c1 0 1 1 2 1 1 1 1 2 1 2l0 62c0 2-1 3-2 3z m-464-213c0 0 207-95 207-95 1-1 2-1 3-1 1 0 2 0 3 0 0 0 288 104 288 104 4 1 6 5 6 8l0 38c0 2-1 5-3 7-2 1-4 1-6 1 0 0-1 0-2 0l-6-1 0 205c0 3-2 7-6 8l-271 100c-1 0-2 0-3 0-1 0-2 0-3-1l-192-90c-3-1-5-4-5-8l0-220-4 1c-1 0-1 1-2 1-2 0-4-1-5-2-3-2-4-4-4-7l0-40c0-4 2-7 5-8z m219 353l142-52 0-149c0-2 1-3 3-3l43-2c0 0 1 1 2 1 0 1 1 1 1 2l0 133 63-23 0-204-254-63z m-109-117c0 1 1 3 2 3l47 12c0 0 0 0 1 0 0 0 1 0 1-1 1 0 1-1 1-2l0-94c0-1-1-2-2-3l-47-1c-1 0-1 0-2 0 0 1-1 2-1 2l0 84z m0-111c0 0 0 1 1 2 1 0 1 0 2 0 0 0 0 0 0 0l47-1c1 0 2-1 2-3l0-93c0-1 0-2-1-3 0 0-1-1-2 0l-47 11c-1 0-2 2-2 3l0 84 0 0z m-77 91c0 2 1 3 2 3l29 8c0 0 0 0 1 0 0 0 1-1 1-1 1-1 2-1 2-2l0-73c0-2-2-3-3-3l-29-2c-1 0-2 1-2 1-1 1-1 2-1 2z m0-90c0 1 0 2 1 2 0 1 1 1 2 1 0 0 0 0 0 0l29-1c1 0 3-1 3-3l0-72c0-1-1-2-2-2 0-1-1-1-2-1l-29 7c-1 1-2 2-2 3z"/>
    </symbol>
  
    <symbol id="fontastic-001-businessman-with-tie" viewBox="0 0 512 512">
      <path d="m163 158c1 8 4 13 8 16 7 48 47 93 84 93 43 0 82-48 90-93 3-3 6-8 7-16 3-9 6-25 0-32 0-1 0-1-1-1 6-19 12-58-11-85-2-3-16-19-44-27l-13-5c-22-6-36-8-37-8-1 0-2 0-3 0-1 1-3 1-5 1-6-1-14 2-15 2-2 1-45 18-58 58-1 4-6 21 1 62-1 1-2 2-3 3-6 7-2 23 0 32z m17-91c0 0 0 0 0-1 11-33 48-48 49-48 1-1 5-2 7-2 3 1 7 0 10 0 4 0 15 2 32 7l13 5c26 7 36 21 36 21 0 1 1 1 1 1 22 25 10 65 6 77-1 3 0 6 2 8 1 1 2 2 4 2 0 4-1 11-3 17 0 0 0 1 0 1-1 4-2 8-4 9-2 1-3 3-3 5-6 37-40 82-75 82-29 0-64-41-69-82-1-2-2-4-3-5-2-1-4-5-5-9 0 0 0-1 0-1-1-6-2-12-2-16 1 0 3-1 4-2 2-2 3-5 3-7-9-46-3-62-3-62z m242 235c0 0-9-12-29-19 0 0-2-1-5-2-18-9-36-14-36-14-4-1-7-3-10-4-12-6-23-13-25-20l9 76-68 175-64-172 1-79c-6 18-76 40-76 40-20 7-29 19-29 19-31 46-34 147-34 147 0 23 10 26 10 26 71 31 181 37 181 37 6 0 12 0 17-1l1 1c0 0 110-6 181-37 0 0 10-3 10-26 0 0-3-101-34-147z m-107-56c0-1 1-2 2-3 0 0 0-1 0-1-1 2-2 3-2 4z m-120-3l0-1 0 1c0 0 0 0 0 0 0 0 0 0 0 0z m34 32l30 46 30-46c-33 14-60 0-60 0z m30 202l23-141-23-15-23 15z"/>
    </symbol>
  
    <symbol id="fontastic-002-dot-1" viewBox="0 0 512 512">
      <path d="m256 0c-141 0-256 115-256 256 0 141 115 256 256 256 141 0 256-115 256-256 0-141-115-256-256-256z"/>
    </symbol>
  
    <symbol id="fontastic-002-skyscraper" viewBox="0 0 512 512">
      <path d="m372 137l-8-5 0-19c0-2-2-5-4-6l-58-32 0-18c0-2 0-4-2-6 0 0-16-17-36-20l0-24c0-4-4-7-8-7-4 0-7 3-7 7l0 24c-20 3-36 20-37 20-1 2-2 4-2 6l0 18-58 32c-2 1-3 4-3 6l0 19-9 5c-3 1-4 4-4 6l0 319c0 4 2 6 5 7l113 43c0 0 1 0 2 0 2 0 3 0 3 0l113-43c2-1 4-3 4-7l0-319c0-2-1-5-4-6z m-200 311c0 1 0 1-1 2 0 0-1 0-1 0 0 0-1 0-1 0l-14-4c-1 0-1-1-1-2l0-283c0-1 0-2 1-3l14-6c1 0 1 0 2 1 1 0 1 1 1 2l0 293z m30 11c-1 1-1 1-2 1 0 0 0 0 0 0l-16-5c-1 0-2-1-2-2l0-305c0-1 1-2 1-2l16-7c1 0 1 0 2 0 1 1 1 2 1 3l1 315c0 1-1 2-1 2z m36 10c0 0 0 1-1 2 0 0-1 0-1 0 0 0-1 0-1 0l-18-6c-1 0-2-1-2-2l0-329c0-1 0-2 1-2l19-9c1 0 2 0 2 1 1 0 1 1 1 2l0 343 0 0z m59-6c0 1 0 2-1 2l-19 6c0 0 0 0-1 0 0 0-1 0-1 0-1-1-1-2-1-2l0-343c0-1 0-2 1-2 1-1 2-1 2-1l19 9c1 0 1 1 1 2l0 329z m33-10c0 1 0 2-1 2l-16 5c0 0-1 0-1 0 0 0-1 0-1-1-1 0-1-1-1-2l0-315c0-1 0-2 1-3 0 0 1 0 2 0l16 7c1 0 1 1 1 2l0 305z m29-9c0 1-1 2-2 2l-14 4c0 0 0 0 0 0-1 0-1 0-2 0-1-1-1-1-1-2l0-293c0-1 0-2 1-2 1-1 2-1 3-1l13 6c1 1 2 2 2 3z"/>
    </symbol>
  
    <symbol id="fontastic-001-dot" viewBox="0 0 512 512">
      <path d="m256 0c-141 0-256 115-256 256 0 141 115 256 256 256 141 0 256-115 256-256 0-141-115-256-256-256z m0 469c-118 0-213-95-213-213 0-118 95-213 213-213 118 0 213 95 213 213 0 118-95 213-213 213z"/>
    </symbol>
  
    <symbol id="fontastic-001-engineer-2" viewBox="0 0 512 512">
      <path d="m326 275l0 41-60 48-49-41 32-48z m27-50c2-8 3-16 4-23 1-8 2-16 2-24l0-27-154 0z m-27 50l0 116-139 0-2-116z m-6 108l-12 129-104 0-13-129z m-48 37l11 92-55 0 11-93 0 0-15-14 32-32 31 32-15 14z m238 29l0 63-202 0 18-196 0 0 121 43c38 14 63 50 63 90m-306 63l-202 0 0-62c0-40 25-76 63-90l103-37 0 0 18-6 0 0z m-18-319c2 18-7 33-19 34-13 1-24-12-25-30-2-18 7-33 19-34 12-1 23 12 25 30m183 4c-1 18-12 31-25 30-12-1-20-16-19-34 2-18 13-31 25-30 12 1 21 16 19 34m-113-153c-57 0-104 46-104 103l0 31c0 8 1 16 2 24l0 0c5 40 22 77 49 107l10 11c9 9 22 15 35 15l15 0c13 0 26-5 35-15l10-11c27-30 44-67 49-107 1-8 2-16 2-24l0-31c0-57-47-103-103-103m0 329l70-57-11 117z m-1 0l-69-56 10 116z m147 66l-36 73-58 0 18-196 18 6 0 0 46 47-37 33z m-198 73l-59 0-35-72 49-36-37-34 46-47 0 0 18-6 0 0z m83-107l-31-32-32 32 8 7 24-24 24 24z m-151-295c1 16 6 28 6 28 1 27 11 35 11 35 0 0 2-12 5-20 2-8 4-16 5-24 1-6 2-12 5-19l-32 0z m195 0c6 6 10 13 12 22 0 2 1 5 2 8 2 7 4 13 5 19 1 12 7 14 7 14 7-9 12-40 12-40 3-8 4-16 3-23z m47 41l-245 0c-9 0-9-23 0-23l245 0c9 0 9 23 0 23m-122-145c-67 0-122 55-122 122l243 0c0-67-54-122-121-122m-44 131l85 0c6-16 11-73 17-89 8-19-18-48-59-48-42 0-68 29-60 48 6 16 12 73 17 89"/>
    </symbol>
  
    <symbol id="fontastic-003-businessman-2" viewBox="0 0 512 512">
      <path d="m511 261l0-53c0-17-10-32-25-38l-60-22-39 1-38-1-60 22c-16 6-26 21-26 38l0 53z m-125-101l5 0 26 5c0 0-17 7-21 16-4-2-8-2-12 0 0 0-7-12-14-16-8-4 16-5 16-5z m-14 101l35 0c-1-22-1-39-2-45 0-14-10-36-10-36l-9-11-2 11c0 0-11 28-11 42 1 4 0 19-1 39z m49-131l-30 30c0 0 35 20 39 29 0 0 5-25 2-32-3-10-11-27-11-27z m-65 0l29 29c0 0-35 20-40 29 0 0-4-25-1-32 3-9 12-26 12-26z m78-40c0 0-2 37-16 55-14 18-38 19-52 5-15-14-22-37-25-56-3-19-2-59 1-68 3-10 71-11 79-6 7 6 16 54 13 70z m-102 0c2 8 5 15 8 15 3 0 4-8 3-16-2-9-5-15-8-15-5 1-6 7-3 16z m96-8l2 0c0 0 0-6 4-9 3-4 6-27 2-39-4-11-24-37-59-34-35 3-44 33-47 40-2 6 0 30 5 37 4 6 6 17 6 17l2 0c0 0-2-12 0-21 2-10 8-21 6-28-3-7 0-10 8-11 9-1 38 5 49 1 10-3 13 0 14 10 1 10 7 19 8 21 0 2 0 16 0 16z m13 0c-1 10-3 17-6 17-3 0-6-7-5-17 2-9 4-17 7-17 3 0 5 8 4 17z m-249 214c-4-1-10 5-12 14-3 9-2 17 2 18 4 1 9-5 12-14 3-9 2-17-2-18z m-97 30c4-1 6-9 4-18-2-10-6-16-10-16-4 1-6 9-5 18 2 10 7 17 11 16z m91-19l1 1c0 0-5 25-9 32l-2 45-34 38-37-35 0-33c0 0-13-22-13-53l1-55 84-9c0 0 7 13 10 34 1 19-1 35-1 35z m-95-6l3 0c0-4 0-18 2-22 4-5 0-10 1-17 2-6 3-9 14-13 13-4 50 0 58-1 7-1 15 12 11 18-3 7 3 10 4 19 1 7 0 16 0 22l2 0c2-8 7-24 7-37 0-17-7-38-19-48-12-11-44-12-64 0-21 10-24 35-23 44 0 11 3 30 4 35z m65 67c-6 5-21 7-30 4-9-3-22-19-22-19l0 33 15 15c8-3 20-8 30-17 19-16 28-44 28-44-2 5-15 24-21 28z m121 143l-7-56c-3-25-19-46-43-56l-42-17-46 26-46-26-42 17c-24 10-40 31-43 56l-7 56z m-118-103c0 0-14 16-16 21-3-2-6-2-10 0-3-5-16-21-16-21z m-4 103c-1-25-2-46-2-50-1-12-9-32-9-32l1-7-8-1-3 7c0 0-8 21-9 28 0 2-2 27-3 55z m21-148c0 0-2 8-6 15-4 6-31 30-31 30 0 0 16 6 23 11 8 6 8 6 8 6 0 0 15-26 16-32 1-7 0-10-2-13-4-5-7-17-8-17z m-72 0c0 0-1 9 4 15 4 6 31 30 31 30 0 0-16 6-23 11-8 6-8 6-8 6 0 0-15-26-16-32-1-7 0-10 2-13 3-5 9-17 10-17z m380 39l27-10-4-27-30 0c-3-7-6-14-11-20l14-26-21-18-22 20c-7-4-14-7-21-8l-6-29-27 0-6 29c-7 1-15 4-21 8l-23-20-22 18 15 26c-4 6-8 13-11 20l-30 0-5 27 28 10c0 8 1 15 4 23l-22 19 14 23 28-9c5 5 10 10 17 15l-6 29 26 10 15-26c4 2 7 2 11 2 5 0 8 0 12-2l15 26 25-10-5-29c7-5 13-9 17-15l28 9 14-23-22-19c3-8 5-15 5-23z m-89 27c-17 0-30-14-30-31 0-17 13-31 30-31 17 0 31 14 31 31 0 17-14 31-31 31z m58-31c0-32-26-57-58-57-32 0-57 25-57 57 0 32 25 58 57 58 32 0 58-26 58-58z m-87 0c0-17 13-31 30-31 17 0 31 14 31 31 0 17-14 31-31 31-17 0-30-14-30-31z m-187-285l0-21c-52 0-95 35-108 84-2-9-4-18-4-29 1-63 51-113 112-113l0-21 62 50z"/>
    </symbol>
  
    <symbol id="fontastic-002-worker" viewBox="0 0 512 512">
      <path d="m316 290l123 30c24 8 41 27 46 52l27 140-512 0 26-140c5-24 23-44 46-52l124-30z m-9 188l86 0 0 34-86 0z m0-34l86 0 0 34-86 0z m-188 0l86 0 0 34-86 0z m236-133l-99 99-99-99-3-11 42-10 120 0 42 10z m-201-11l34 110 51-52-57-64z m176-6l-57 64 51 52 34-110z m-185-140l12 72c3 20 13 37 26 51l3 3c18 18 42 27 67 27l7 0c25 0 49-10 67-27l2-3c14-13 23-31 27-51l11-72m-222-43l-34 0 0 34 34 0m222 0l34 0 0-34-34 0m-188 77l-34-34 0-35c0-65 50-119 111-119 61 0 111 54 111 119l0 35-34 34z m60-186c-12 1-24 6-34 12l0 105 34 0z m34 0l0 117 34 0 0-105c-10-6-22-11-34-12z m60 186l34-34-222 0 34 34z m-86 213l18 0 0 111-18 0z"/>
    </symbol>
  
    <symbol id="fontastic-003-engineer-1" viewBox="0 0 512 512">
      <path d="m298 324c-7 3-16 4-25 4l-34 0c-9 0-18-1-25-4-2 0-3-1-4-1l0 21 46 59 46-59 0-21c-1 0-2 1-4 1z m-65 26l0-22c-7-1-13-2-19-4-2 0-3-1-4-1l0 21 23 29z m125-209l0 40c13 0 24 10 26 22l0-62z m-231 14l0 53c0-15 12-27 27-27l0-40-27 0z m-28 207c-35 12-60 44-60 83l0 54c0 7 6 13 13 13l47 0z m-38 137l0-54c0-30 15-56 38-72l0-11c-35 12-60 44-60 83l0 54c0 7 6 13 13 13l23 0c-8 0-14-6-14-13z m352-137l0 150 47 0c7 0 13-6 13-13l0-54c0-39-25-71-60-83z m-76 150l40 0 0-154c0 0 0 0 0 0l-40 0-81 45 0 0 0 0-81-45-42 0c0 0 0 0 0 0l0 154 174 0m-21-387l86 0c-5-49-40-89-86-102z m-60-102c-46 13-81 53-86 102l86 0z m0 9l0-9c-46 13-81 53-86 102l23 0c4-41 29-75 63-93z m60 93l0-110c0-8-7-15-15-15l-30 0c-8 0-15 7-15 15l0 110z m-23-125l-22 0c-8 0-15 7-15 15l0 110 22 0 0-110c0-8 7-15 15-15z m-86 141c-5 0-9-4-9-9l0-82c0-5 4-9 9-9 4 0 8 4 8 9l0 82c0 5-4 9-8 9z m158 0c-4 0-8-4-8-9l0-82c0-5 4-9 8-9 5 0 9 4 9 9l0 82c0 5-4 9-9 9z m-181 39c-15 0-27 12-27 26 0 15 12 27 27 27z m204 0c15 0 27 12 27 26 0 15-12 27-27 27z m-70-25l-134 0 0 88c0 47 38 85 85 85l34 0c47 0 85-38 85-85l0-88z m-111 88l0-88-23 0 0 88c0 47 38 85 85 85l22 0c-47 0-84-38-84-85z m214-102l0-4c0-8-7-15-15-15l-240 0c-8 0-15 7-15 15l0 4c0 8 7 14 15 14l240 0c8 0 15-6 15-14z m-249 0l0-4c0-8 7-15 15-15l-21 0c-8 0-15 7-15 15l0 4c0 8 7 14 15 14l21 0c-8 0-15-6-15-14z m160 272l35-55-35-14-46 59 21 15c0 0 16 10 25-5z m-92 0l-35-55 35-14 46 59-21 15c0 0-16 10-25-5z m46-10l-8 6 0 67c0 5 3 9 8 9 5 0 8-4 8-9l0-67-8-6 0 0z m-135 109l0-36 270 0 0 36m11-168l-22 0c-7 0-13 6-13 14l0 60 48 0 0-60c0-8-6-14-13-14z m-270 0l-22 0c-7 0-13 6-13 14l0 60 48 0 0-60c0-8-6-14-13-14z m235 71l48 0 0 97-48 0z m-257-71c-7 0-13 6-13 14l0 60 22 0 0-60c0-7 6-13 13-14 0 0 0 0 0 0z m-13 71l48 0 0 97-48 0z m0 0l22 0 0 97-22 0z m283-71c-7 0-13 6-13 14l0 63 22 0 0-63c0-7 6-13 13-14 0 0 0 0 0 0z m-13 71l22 0 0 97-22 0z"/>
    </symbol>
  
    <symbol id="fontastic-003-stepped-building" viewBox="0 0 512 512">
      <path d="m473 239l-47-6 0-93c0-4-2-7-6-8l-37-14 0-50c0-3-1-6-4-8l-119-59c0 0-2-1-4-1-2 0-4 1-4 1l-118 59c-3 2-5 5-5 8l0 50-37 14c-3 1-6 4-6 8l0 93-47 6c-4 0-8 4-8 9l0 174c0 4 3 7 6 9l216 81c0 0 1 0 3 0 2 0 3 0 3 0l216-82c4-1 6-4 6-8l0-174c0-5-3-8-8-9z m-362 157c0 1 0 2-1 2 0 1-1 1-2 1 0 0 0 0 0 0l-59-15c-1 0-2-1-2-3l0-22c0-1 0-2 1-3 1 0 2 0 2 0l59 11c1 0 2 1 2 3l0 26z m0-52c0 0 0 1-1 2 0 0-1 1-2 1 0 0 0 0 0 0l-59-8c-1 0-2-1-2-3l0-22c0-1 0-2 1-2 0-1 1-1 2-1l59 4c1 0 2 1 2 3z m0-53c0 2-1 3-3 3l-58 0c-2 0-3-1-3-3l0-22c0-2 1-3 3-3l58-4c1 0 2 1 2 1 1 1 1 2 1 2z m124 136c0 1 0 2-1 2-1 1-1 1-2 1 0 0 0 0-1 0l-94-24c-1 0-2-2-2-3l0-28c0-1 0-1 1-2 0-1 1-1 2-1l95 18c1 0 2 2 2 3l0 34z m0-68c0 1 0 2-1 2 0 1-1 1-2 1 0 0 0 0 0 0l-95-12c-1 0-2-1-2-3l0-28c0 0 0-1 1-2 0 0 1-1 2-1l94 6c2 0 3 2 3 3z m0-68c0 2-1 3-3 3l-94 0c-1 0-3-1-3-3l0-28c0-1 1-2 3-2l94-6c1 0 2 0 2 0 1 1 1 2 1 3l0 33z m0-67c0 1-1 3-2 3l-124 15c0 0 0 0-1 0 0 0-1 0-1-1-1 0-1-1-1-2l0-26c0-1 1-2 2-3l124-23c0 0 1 0 2 1 1 0 1 1 1 2l0 34z m0-68c0 1-1 3-2 3l-124 31c0 0 0 0-1 0 0 0-1 0-1-1-1 0-1-1-1-2l0-26c0-1 0-2 2-3l123-39c1 0 2 0 3 1 1 0 1 1 1 2z m0-68c0 2-1 3-2 3l-78 30c0 0-1 0-1 0-1 0-1 0-2-1-1 0-1-1-1-2l0-29c0-1 1-2 2-3l78-34c1 0 2 0 3 0 1 1 1 2 1 3z m42-33c0-1 1-2 1-3 1 0 2 0 3 0l79 34c1 1 1 2 1 3l0 29c0 1 0 2-1 2 0 1-1 1-2 1 0 0 0 0-1 0l-78-30c-1 0-2-1-2-3z m0 67c0-1 1-2 1-2 1-1 2-1 3-1l124 39c1 1 2 2 2 3l0 26c0 1-1 2-1 2-1 1-2 1-2 1 0 0-1 0-1 0l-124-31c-1 0-2-2-2-3z m0 68c0-1 0-2 1-2 1-1 2-1 3-1l123 23c2 1 3 2 3 3l0 26c0 1-1 2-1 2-1 1-2 1-2 1 0 0 0 0-1 0l-123-15c-2 0-3-2-3-3z m84 275c0 1 0 2-2 3l-56 21c0 0-1 0-1 0-1 0-1 0-2 0 0-1-1-2-1-3l0-97c0-2 1-3 2-3l57-11c1 0 2 0 2 1 1 1 1 1 1 2l0 87z m17-118c0 2-2 3-3 3l-95 12c0 0 0 0 0 0-1 0-1 0-2-1-1 0-1-1-1-2l0-34c0-1 1-3 3-3l94-6c1 0 2 1 3 1 0 1 1 2 1 2z m0-56c0 2-2 3-3 3l-95 0c-2 0-3-1-3-3l0-33c0-1 0-2 1-3 1 0 1 0 2 0l95 6c1 0 3 1 3 3l0 27z m87 90c0 2-1 3-2 3l-59 15c0 0 0 0 0 0-1 0-2 0-2-1-1 0-1-1-1-2l0-26c0-2 1-3 2-3l59-11c1 0 2 0 2 0 1 1 1 2 1 3l0 22z m0-45c0 2-1 3-2 3l-59 8c0 0 0 0 0 0-1 0-2-1-2-1-1-1-1-2-1-2l0-26c0-2 1-3 3-3l58-4c1 0 2 0 2 1 1 0 1 1 1 2z m0-45c0 2-1 3-3 3l-58 0c-2 0-3-1-3-3l0-26c0 0 0-1 1-2 0 0 1-1 2-1l59 4c1 0 2 1 2 3l0 22z"/>
    </symbol>
  
    <symbol id="fontastic-004-businessman-1" viewBox="0 0 512 512">
      <path d="m256 0c-82 0-148 66-148 148l0 67 296 0 0-67c0-82-66-148-148-148z m-126 176c-20 0-37 16-37 37 0 20 17 36 37 36l17 0 0-73z m252 0c20 0 37 16 37 37 0 20-17 36-37 36l-17 0 0-73z m-164 154l76 0 0 79-76 0z m76 68l-76 0c0 6-43 68-43 68l43 46 20 0 11-43-3-41 20 0-5 42 13 42 20 0 43-46c0 0-43-62-43-68z m0-11l0-57-76 0 0 57c12 3 25 5 38 5 13 0 26-2 38-5z m53-270c-13 0-23-10-23-23 0 13-10 23-22 23-13 0-23-10-23-23 0 13-10 23-23 23-13 0-23-10-23-23 0 13-10 23-23 23-12 0-22-10-22-23 0 13-10 23-23 23-7 0-14-4-18-9-11 18-17 39-17 61l0 64c0 70 56 126 126 126 70 0 126-56 126-126l0-64c0-22-6-43-17-61-4 5-11 9-18 9z m-91 176c-15 0-28-2-35-7-4-3-5-8-2-12 2-3 7-4 11-2 4 3 13 5 26 5 13 0 22-2 26-5 4-2 9-1 11 2 3 4 2 9-2 12-7 5-20 7-35 7z m-31-99c-2 0-4 0-6-1-2-3-10-5-19-5-10 0-18 2-20 5-4 2-9 2-12-2-2-3-2-8 1-11 7-5 18-8 31-8 12 0 23 3 30 8 3 3 4 8 1 12-2 1-4 2-6 2z m-12 20c0 7-6 13-13 13-8 0-14-6-14-13 0-8 6-14 14-14 7 0 13 6 13 14z m74-20c-2 0-4-1-6-3-3-3-2-8 1-11 7-5 18-8 30-8 13 0 24 3 31 8 3 3 4 8 1 11-3 4-8 4-12 2-2-3-10-5-20-5-9 0-17 2-19 5-2 1-4 1-6 1z m39 20c0 7-6 13-14 13-7 0-13-6-13-13 0-8 6-14 13-14 8 0 14 6 14 14z m-245 298l137 0 0-114c-11 2-20 5-30 9-48 19-87 57-107 105z m350 0c-20-48-58-86-106-105l-1 0c-10-4-19-7-30-9l0 114z m-157 0l-8-84-20 0-8 84z m-6-114l8 23-20 15-20-15 8-23z"/>
    </symbol>
  
    <symbol id="fontastic-note" viewBox="0 0 512 512">
      <path d="m390 31l-73 0 0 15 73 0c5 0 10 4 10 10 0 2-1 3-1 4l13 7c2-3 3-7 3-11 0-14-12-25-25-25z m-113 0l18 0 0 15-18 0z m-185 132l261 0 0 15-261 0z m0 269l261 0 0 15-261 0z m347-264l-10 10 9 10-30 30 10 10 41-40z m-50 69l10-10 10 11-10 9z m111-112l-5-6c-16-16-42-16-58 0l-5 6-11 10-27 27 0-56c26-2 46-24 46-50 0-28-23-50-50-50l-340 0c-28 0-50 22-50 50l0 399 43 0 0 51 351 0 0-218 90-90 8-8 3-2 5-6c8-7 12-18 12-29 0-10-4-21-12-28z m-414-104l304 0c19 0 35 15 35 35 0 19-16 35-35 35l-304 0c9-9 14-21 14-35 0-14-5-26-14-35z m-43 70l0 349-28 0 0-384c0-20 16-35 35-35 20 0 36 15 36 35 0 19-16 35-36 35z m336 401l-321 0 0-386 321 0 0 71-32 32-255 0 0 15 241 0-31 31-210 0 0 14 195 0-31 31-164 0 0 15 149 0-2 3-9 28-138 0 0 15 134 0-9 31-125 0 0 14 261 0 0-14-88 0 37-11 20-20 31 0 0-15-17 0 43-43z m-130-157l35 35-50 15z m49 29l-42-43 176-176 42 43z m192-192l-6 5-42-42 5-5c11-10 27-10 37 0l6 5c5 5 7 11 7 18 0 7-2 14-7 19z"/>
    </symbol>
  
    <symbol id="fontastic-businessman" viewBox="0 0 512 512">
      <path d="m457 183l-36 0c-1 0-2-1-3-2-4-22-12-41-24-58 0-1 0-3 1-4l25-25c5-5 5-13 0-18l-26-27c-5-4-13-4-18 0l-26 26c0 1-2 1-3 0-17-11-37-19-58-24-1 0-2-1-2-2l0-36c0-7-5-13-12-13l-38 0c-7 0-12 6-12 13l0 36c0 1-1 2-2 2-21 5-41 13-58 24-1 1-3 1-3 0l-26-26c-5-4-13-4-18 0l-26 27c-5 5-5 13 0 18l25 25c1 1 1 3 1 4-12 17-20 36-24 58-1 1-2 2-3 2l-36 0c-7 0-13 5-13 12l0 37c0 7 6 13 13 13l36 0c1 0 2 1 3 2 4 21 12 41 24 58 0 1 0 2-1 3l-25 26c-5 5-5 13 0 18l26 26c2 3 6 4 9 4 5-4 9-6 9-6l3-1 23-23c0 0 2-1 3 0 4 3 8 7 13 9l44-17 0 0 0 0 0-22c-46-14-80-57-80-108 0-63 50-113 113-113 62 0 113 50 113 113 0 52-36 95-83 109l0 21 47 18c5-3 10-7 15-10 1-1 3 0 3 0l26 26c5 5 13 5 18 0l26-26c5-5 5-13 0-18l-25-26c-1-1-1-2-1-3 12-17 20-37 24-58 1-1 2-2 3-2l36 0c7 0 13-6 13-13l0-37c0-7-6-12-13-12z m-394 49l0-37c0-7 5-12 12-12l-20 0c-7 0-13 5-13 12l0 37c0 7 6 13 13 13l20 0c-7 0-12-6-12-13z m54-113c1 1 1 3 1 4-12 17-20 36-24 58-1 1-2 2-3 2l21 0c1 0 2-1 2-2 5-22 13-41 24-58 1-1 1-3 0-4l-26-25c-5-5-5-13 0-18l25-25-1-2c-5-4-13-4-18 0l-26 27c-5 5-5 13 0 18z m-5 233c-5-5-5-13 0-18l26-26c1-1 1-2 0-3-11-17-19-37-24-58 0-1-1-2-2-2l-21 0c1 0 2 1 3 2 4 21 12 41 24 58 0 1 0 2-1 3l-25 26c-5 5-5 13 0 18l26 26c2 3 6 4 9 4 5-4 9-6 9-6l1 0z m141-224c-43 0-77 35-77 77l0 31c5-5 12-7 19-6l0-4c0-3 3-6 6-6 30 3 60-7 83-22 2-1 5-1 7 1 19 21 19 20 19 23l0 8c8-2 15 1 20 5l0-30c0-42-35-77-77-77z m-57 77c0-39 29-71 67-76-3 0-7-1-10-1-43 0-77 35-77 77l0 31c5-5 12-7 19-6l0-4c0-1 1-3 1-3z m113 21l0 43c0 0 0 1 0 1 15 2 27-9 27-22 0-13-12-24-27-22z m-113 43l0-43c-13-1-26 9-26 22 0 13 12 24 26 22 0 0 0-1 0-1z m132-38c-5-4-12-6-19-5l0 43c0 0 0 1 0 1 7 1 14-1 19-5z m-132 34c-9-8-11-23 0-33l0-6c-13-1-26 9-26 22 0 13 12 24 26 22 0 0 0-1 0-1z m58 59c-13 0-24-3-33-9l0 30 32 40 33-40 0-31c-9 6-21 10-32 10z m-12-1c-8-1-15-4-21-8l0 30 21 26z m129 53l-85-33-33 40-32-40-85 33c0 0-31 13-31 49l0 80c0 4 3 7 7 7l283 0c4 0 7-3 7-7l0-80c0-36-31-49-31-49z m-246 129l0-89c0-25 15-39 25-45l-14 5c0 0-31 13-31 49l0 80c0 4 3 7 7 7l21 0c-4 0-8-3-8-7z m166-308c-2-2-5-2-7-1-23 15-53 25-83 22-3 0-6 3-6 6l0 46c0 29 24 56 59 56 31 0 56-25 56-56l0-50c0-3 0-2-19-23z m-75 73l0-51c-5 0-10 0-15-1-3 0-6 3-6 6l0 46c0 29 24 56 59 56 3 0 6 0 9-1-27-4-47-27-47-55z m76 133l24-48-30-12-33 40 32 22c2 2 6 1 7-2z m-77 0l-24-48 30-12 33 40-32 22c-2 2-6 1-7-2z m39-20l0 0-1 0 0 0 0 0-22 16 10 16c9 0 16 0 25 0l10-16z m-29 129l57 0-16-97c-9 0-16 0-25 0z m40-121l-11-8 0 0-1 0 0 0 0 0-22 16 10 16c9 0 15 0 23 0l-9-13c-1-2 0-4 1-5z m-24 24l-16 97 23 0 16-97c-8 0-14 0-23 0z m-75 97l0-75c0-4-3-7-8-7-4 0-7 3-7 7l0 75z m190 0l0-75c0-4-3-7-7-7-5 0-8 3-8 7l0 75z m-111-499c0-7 6-13 13-13l-21 0c-7 0-12 6-12 13l0 36c0 1-1 2-2 2l19-2c2 0 3-2 3-3z"/>
    </symbol>
  
    <symbol id="fontastic-007-businessman" viewBox="0 0 512 512">
      <path d="m414 406c-5-65-18-133-37-138l-2 0c-12-5-89-29-89-29 0 0-13-8-23-22 0 0-2 19-4 40l-51 0-51 3c-2-21-6-43-6-43-8 13-22 21-22 21 0 0-77 25-90 29l-1 0c-19 6-33 73-37 138l413 0z m-129-257c-2 14-9 25-15 25-7-1-11-13-9-27 1-14 8-25 14-24 8 0 11 11 10 26z m-137-3c2 14-1 27-7 27-7 1-14-11-16-25-2-14 1-26 7-26 7 0 13 10 16 24z m139-61c0 47-37 117-82 117-46 0-82-70-82-117 0-69 34-85 82-85 48 0 82 16 82 85z m-115 321l71 0-19-104 15-15c0 0-20-31-31-31-11 0-31 31-31 31l15 15z m86-258l-101 0 0 56c0 0-1 21 24 35 26 15 27 16 27 16 0 0 0-2 27-16 25-15 24-35 24-35l0-56z m14 26c0 8-7 20-16 31-25 31-71 31-96 0-9-11-16-23-16-31-9-47-9-78-4-98 2-11 14-17 24-13 12 5 26 7 42 7 16 0 30-3 41-7 11-4 24 2 25 15 2 31 1 77 0 96z m1 55l-27 73c-10-19-23-35-39-47 0 0 0-2 27-16 25-15 24-35 24-35z m-65 26c-16 12-29 28-39 47l-27-73 15-25c0 0-1 21 24 35 26 15 27 16 27 16z m282 55l-67 0 0-17c0-11-9-21-21-21l-55 0c-12 0-22 10-22 21l0 17-71 0c-12 0-21 10-21 22l0 159c0 11 9 21 21 21l236 0c11 0 21-10 21-21l0-159c0-12-10-22-21-22z m-147-18c0-2 3-3 4-3l55 0c2 0 3 2 3 3l0 17-63 0 0-17z"/>
    </symbol>
  
    <symbol id="fontastic-006-office-block" viewBox="0 0 512 512">
      <path d="m500 116l-98-32c0 0-1-1-3 0-2 0-3 0-3 0l-64 26 0-43c0-3-2-7-6-8l-178-59c0 0-2 0-4 0-2 0-4 2-4 2l-131 93c-2 1-3 4-3 7l0 330c0 3 2 6 4 8l131 71c0 0 1 1 3 1 2 0 3 0 3 0l179-45 75-19 99-25c4-1 6-5 6-9l0-289c0-4-2-8-6-9z m-442 284c0 1 0 2-1 2-1 0-1 1-2 1 0 0-1 0-1-1l-26-9c-1 0-1-2-1-3l0-50c0 0 0-1 1-2 0 0 1-1 2 0l26 4c1 1 2 2 2 3z m0-82c0 1 0 2-1 2 0 1-1 1-2 1 0 0 0 0 0 0l-26-3c-1 0-2-1-2-3l0-49c0-2 1-3 2-3l26-2c1 0 2 0 2 0 1 1 1 2 1 3z m0-82c0 2-1 3-2 3l-26 5c0 0 0 0-1 0 0 0-1-1-1-1-1-1-2-1-2-2l0-50c0-1 1-2 2-3l26-9c1 0 2 0 3 0 1 1 1 2 1 3z m0-81c0 1-1 2-2 2l-25 12c-1 0-1 0-2 0 0 0-1 0-1-1-1 0-1-1-1-2l0-50c0-1 0-2 1-2l26-16c0-1 2-1 3 0 1 0 1 1 1 2z m69 270c0 1 0 2-1 2-1 1-1 1-2 1 0 0-1 0-1 0l-38-14c-1-1-2-2-2-3l0-60c0-1 1-2 1-2 1-1 2-1 3-1l38 7c1 1 2 2 2 3l0 67z m0-100c0 1 0 1-1 2 0 0-1 1-2 1 0 0 0 0 0 0l-38-4c-2 0-3-1-3-3l0-60c0-2 1-3 3-3l38-3c1 0 1 0 2 1 1 0 1 1 1 2z m0-101c0 2-1 3-2 3l-38 7c-1 0-1 0-1 0-1 0-1 0-2-1 0 0-1-1-1-2l0-60c0-1 1-2 2-3l38-13c1-1 2 0 3 0 1 1 1 2 1 3l0 66z m0-100c0 1-1 2-2 3l-38 17c0 0-1 0-1 0 0 0-1 0-2-1 0 0-1-1-1-2l0-60c0-1 1-2 2-3l38-23c0-1 2-1 3 0 0 0 1 1 1 2z m101 359c0 1-1 3-2 3l-60 15c-1 0-1 0-1 0-1 0-1 0-2 0-1-1-1-2-1-3l0-138c0-1 1-2 3-3l60-5c1 0 2 0 2 1 1 1 1 1 1 2l0 128z m0-160c0 2-1 3-2 3l-61 3c0 0 0 0 0 0-1 0-2 0-2-1-1-1-1-1-1-2l0-69c0-1 0-2 1-2 0-1 1-1 2-1l61 2c1 0 2 2 2 3l0 64z m0-96c0 1 0 2-1 2 0 1-1 1-2 1 0 0 0 0 0 0l-60-5c-2 0-3-1-3-3l0-69c0 0 0-1 1-2 1 0 2-1 2-1l61 10c1 1 2 2 2 3l0 64z m0-96c0 1 0 2-1 3 0 0-1 0-2 0 0 0 0 0 0 0l-61-12c-1-1-2-2-2-3l0-69c0-1 0-2 1-2 1-1 2-1 3-1l60 17c2 1 2 2 2 3l0 64z m76 333c0 1-1 3-2 3l-49 12c0 0 0 0 0 0-1 0-2 0-2 0-1-1-1-2-1-3l0-123c0-2 1-3 2-3l49-4c1 0 2 0 2 0 1 1 1 2 1 3z m0-144c0 1-1 3-3 3l-48 2c0 0 0 0 0 0-1 0-2 0-3-1 0 0 0-1 0-2l0-62c0-1 0-1 0-2 1 0 2-1 3-1l48 2c2 0 3 1 3 3l0 58z m0-87c0 1 0 2-1 2 0 1-1 1-2 1 0 0 0 0 0 0l-49-4c-1 0-2-1-2-3l0-61c0-1 0-2 1-3 0 0 1 0 2 0l49 8c1 0 2 1 2 3z m0-86c0 1 0 1-1 2 0 0-1 1-2 1 0 0 0 0 0 0l-49-10c-1-1-2-2-2-3l0-62c0-1 0-2 1-2 0-1 1-1 2-1l49 14c1 1 2 2 2 3l0 58z m81 195c0 1-1 2-3 3l-38 3c0 0 0 0 0 0-1 0-1 0-2-1 0 0-1-1-1-2l0-81c0-1 0-2 1-2 1-1 1-1 2-1l38 1c2 0 3 2 3 3l0 77z m0-102c0 0 0 1-1 2-1 0-1 1-2 1 0 0 0 0 0 0l-38-3c-2-1-3-2-3-3l0-82c0 0 1-1 1-2 1 0 2-1 3 0l38 7c1 1 2 2 2 3l0 77z m72-106c0 0 0-1 1-2 1 0 2-1 3 0l25 7c2 0 3 2 3 3l0 42c0 1-1 2-2 3 0 0-1 0-1 0-1 0-1 0-1 0l-26-5c-1 0-2-2-2-3l0-45z m0 67c0-1 0-1 1-2 1-1 1-1 2-1l26 5c2 0 3 1 3 3l0 42c0 1-1 1-1 2-1 1-2 1-2 1 0 0-1 0-1 0l-25-2c-2 0-3-2-3-3z m0 67c0-1 0-1 1-2 0-1 1-1 2-1l26 1c1 0 3 1 3 3l0 42c0 2-2 3-3 3l-26 2c0 0 0 0 0 0-1 0-2-1-2-1-1-1-1-2-1-2l0-45z m-8 159c0 2-1 3-2 3l-31 8c0 0 0 0 0 0-1 0-2 0-2-1-1 0-1-1-1-2l0-96c0-2 1-3 2-3l31-3c0 0 1 0 2 1 0 0 1 1 1 2z m0-114c0 2-1 3-3 3l-30 2c0 0 0 0 0 0-1 0-2-1-2-1-1-1-1-2-1-2l0-49c0 0 0-1 1-2 0 0 1-1 2-1l30 2c1 0 3 1 3 3l0 45z m0-68c0 1-1 1-1 2-1 0-1 1-2 1 0 0 0 0 0 0l-31-3c-1 0-2-1-2-3l0-48c0-1 0-2 1-2 0-1 1-1 2-1l30 5c2 0 3 2 3 3l0 46z m0-69c0 1-1 2-1 2-1 1-2 1-2 1 0 0-1 0-1 0l-30-6c-1 0-2-2-2-3l0-48c0-1 0-2 1-3 1 0 2 0 2 0l31 9c1 0 2 1 2 2l0 46z m38 244l-27 7c0 0 0 0 0 0-1 0-2 0-2-1-1 0-1-1-1-2l0-89c0-2 1-3 3-3l25-2c1 0 2 0 3 0 0 1 1 2 1 3l0 84c0 2 0 3-2 3z"/>
    </symbol>
  
    <symbol id="fontastic-006-manager" viewBox="0 0 512 512">
      <path d="m488 379l0 114c0 10-8 19-19 19l-426 0c-11 0-19-9-19-19l0-114c0-43 28-80 69-91l93-26c9-2 18 2 22 9l48 84 48-84c4-7 13-11 22-9l93 26c41 11 69 48 69 91z m-232-379c-55 0-99 53-99 118 0 65 44 118 99 118 55 0 99-53 99-118 0-65-44-118-99-118z"/>
    </symbol>
  
    <symbol id="fontastic-005-modern-house" viewBox="0 0 512 512">
      <path d="m506 193l-145-38c0 0-1 0-2 0-1 0-2 0-2 0l-21 3 0-91c0-4-2-7-6-8l-137-36c-2-1-4-1-6 0l-182 86c-3 1-5 4-5 8l0 16c0 3 1 5 4 7 2 2 6 2 8 1l2-1 0 86c0 2 1 5 2 6 2 2 4 3 6 3 1 0 1 0 1 0l14-1 0 97 0 35c0 4 2 7 6 8l312 115c0 0 2 1 5 1 2-1 3-2 3-2l145-101c3-2 4-4 4-7l0-179c0-4-2-7-6-8z m-280-124c0-1 0-2 1-2 1-1 1-1 2-1l71 17c1 1 2 2 2 3l0 86c0 1-1 2-2 3l-71 9c0 0 0 0 0 0-1 0-2 0-2-1-1 0-1-1-1-2z m-196 142c0 0 0 0 0 0-1 0-2 0-2 0-1-1-1-2-1-3l0-84c0-1 1-2 2-3l143-60c1 0 2 0 3 1 1 0 1 1 1 2l0 125c0 1-1 2-2 3z m77 135c0 1 0 1-1 2 0 0-1 1-1 1-1 0-1 0-1 0l-42-11c-1 0-2-2-2-3l0-94c0-1 1-3 3-3l41-1c1 0 2 1 3 1 0 1 0 1 0 2l0 106z m86 22c0 1 0 1-1 2 0 0-1 1-1 1-1 0-1 0-1-1l-61-15c-2 0-3-2-3-3l0-112c0-2 2-3 3-3l61-2c1 0 2 1 3 1 0 1 0 1 0 2z m137 35c0 1 0 1-1 2 0 0-1 1-2 1 0 0 0 0 0-1l-99-25c-1 0-2-1-2-3l0-140c0-1 1-3 3-3l98-2c1 0 2 0 2 1 1 0 1 1 1 2l0 168z m152-6c0 1-1 2-1 2l-76 53c-1 1-1 1-2 1 0 0-1 0-1-1-1 0-2-1-2-2l0-214c0-1 0-1 1-2 1 0 1-1 2-1l76 4c2 0 3 1 3 3z"/>
    </symbol>
  
    <symbol id="fontastic-tow-truck" viewBox="0 0 512 512">
      <path d="m474 195c-4-2-7-7-7-13l0-56c18-17 34-29 34-54 0-27-23-50-50-50-28 0-19-1-240 219l0 82 60 0 163-163 0 22c0 18 9 35 25 43 5 2 8 8 8 14 0 10-7 17-16 17-9 0-17-7-17-17 0-9-7-16-17-16-9 0-16 7-16 16 0 28 22 50 50 50 27 0 50-22 50-50 0-18-10-35-27-44z m-23-106c-9 0-17-7-17-17 0-9 8-16 17-16 9 0 16 7 16 16 0 10-7 17-16 17z m44 267l0 0c-169 0-152 0-317 0l0-167c0-9-7-16-17-16l-78 0c-46 0-83 37-83 83l0 83 50 0c9 0 17 8 17 17 0 9-8 17-17 17l-50 0 0 17c0 27 22 50 50 50l17 0c0 27 22 50 50 50 27 0 50-23 50-50l50 0c0 27 23 50 50 50 28 0 50-23 50-50l45 0c0 27 22 50 50 50 27 0 50-23 50-50 28 0 50-23 50-50l0-17c0-9-7-17-17-17z m-462-50l0-50c0-28 23-50 50-50l28 0 0 100z m84 150c-9 0-17-7-17-16 0-10 8-17 17-17 9 0 17 7 17 17 0 9-8 16-17 16z m150 0c-9 0-17-7-17-16 0-10 8-17 17-17 9 0 17 7 17 17 0 9-8 16-17 16z m145 0c-9 0-17-7-17-16 0-10 8-17 17-17 9 0 17 7 17 17 0 9-8 16-17 16z"/>
    </symbol>
  
    <symbol id="fontastic-005-support" viewBox="0 0 512 512">
      <path d="m444 193l0 0 0 0c-1-103-85-187-188-187-103 0-187 84-188 187l0 0 0 0c-38 1-68 31-68 69 0 38 30 68 68 69l0 85c0 36 29 65 65 65l86 0c6 15 20 25 37 25 22 0 40-18 40-40 0-19-14-36-32-39 60-3 110-42 131-96l49 0 0 0c38-1 68-31 68-69 0-38-30-68-68-69z m-376 108c-21-1-38-18-38-39 0-21 17-38 38-39z m30-78l10 0 0 78-10 0z m121 228l-86 0c-19 0-35-16-35-35l0-85 19 0c21 54 71 93 131 96-13 2-24 12-29 24z m47 15c0 6-4 10-10 10-3 0-5-1-7-3l0-14c2-2 4-3 7-3 6 0 10 4 10 10z m108-187c0 65-53 118-118 118-65 0-118-53-118-118l0-57c0-52 43-95 95-95l46 0c52 0 95 43 95 95z m-95-182l-46 0c-59 0-108 41-122 96l-13 0c1-87 71-157 158-157 87 0 157 70 158 157l-13 0c-14-55-63-96-122-96z m135 204l-10 0 0-78 10 0z m30 0l0-78c21 1 38 18 38 39 0 21-17 38-38 39z m-138 11c-13 14-31 21-50 21-19 0-37-7-50-21l-21 21c19 19 44 30 71 30 27 0 52-11 71-30z"/>
    </symbol>
  
    <symbol id="fontastic-007-3d-house" viewBox="0 0 512 512">
      <path d="m149 256c-1 1-1 2-1 3l0 93c0 1 1 3 2 3l60 20c1 0 1 0 1 0 1 0 2 0 2 0 1-1 2-2 2-3l0-104c0-2-1-3-3-4l-61-8c0-1-1 0-2 0z m-31-5l-43-6c-1-1-2 0-2 0-1 1-1 2-1 3l0 79c0 1 1 2 2 3l42 14c1 0 1 0 1 0 1 0 2 0 2-1 1 0 2-1 2-2l0-87c0-2-2-3-3-3z m392-70l-132-177c0 0-1-2-4-3-3-1-6 0-6 0l-208 53 0-18c0-5-3-9-7-10l-17-4c0 0-1 0-3 0-2 0-3 1-3 1l-31 11c-4 1-6 5-6 9l0 28-33 9c-3 0-5 2-6 5l-53 104c-1 3-1 7 0 10 2 2 5 4 8 4l25 1 0 185c0 4 2 7 5 9l217 113c0 0 2 1 5 1 2 0 4-1 4-1l210-110c3-1 5-5 5-8l1-198 21 1c0 0 6 1 9-4 3-6-1-11-1-11z m-259 306l-198-103 0-180 158 3c0 0 0 0 0 0l0 0 40 1 0 279z m221-312c-3 0-5 1-7 3-2 2-3 4-3 7l0 202-55 28 0-175c0-1 0-2-1-2 0-1-1-1-2-1l-52 4c-2 0-3 2-3 3l0 202-79 41 0-288c0-5-4-10-9-10l-29 0 138-164 113 151z"/>
    </symbol>
  
    <symbol id="fontastic-002-businessman-3" viewBox="0 0 512 512">
      <path d="m362 192l8 3c0 0 5 5 7 13 2 7 16 49 20 59 3 9 16 60 19 68 3 6 4 17 2 25-2 9-5 30-8 41-2 11-10 50-11 59-1 7-8 32-8 32 0 0-10-19-30-25l8-24c0 0-9-39-9-46 0-8 3-9 5-16 1-8 1-12 1-16-1-5-4-5-4-10 0-5-23-38-23-38z m-179 253c0 0-12 38-8 67l208 0c0 0 8-18 1-34-8-16-16-24-18-30-1-6-3-20-3-20z m110-343c0 0 1 11-5 24l0 63-65 0-3-46 0-24c0 0-10-28-10-51 0-24 4-59 44-60 40-1 39 51 39 63 0 12 0 31 0 31z m4-30c-4 0-8 6-9 14-1 8 1 15 5 16 4 1 8-6 10-14 1-8-2-15-6-16z m-84 30c4-1 7-8 5-16-1-8-5-14-9-14-4 1-7 8-5 16 1 8 5 14 9 14z m-89 121c0 0 11-18 29-26 17-7 24-15 35-21 12-7 25-14 25-14l48 13 9 0 21-18c0 0 7 2 30 10 23 9 35 13 40 17 6 5 9 10 9 10 0 0-12 37-15 79 0 0-4 42 3 90 8 48 12 70 12 70 0 0-33 17-58 19-24 2-30 2-62 6-32 3-69-6-78-11-8-5-22-56-22-56 0 0 20-44 16-79-4-34-42-89-42-89z m137-47l5 0 20-1c-7 9-13 18-14 25-5-2-9-1-13 2-2-5-8-11-15-16z m11 23c0 0 2 19 11 59 10 39 10 166 10 166l-23 20-19-22c0 0 9-144 6-170-3-26 2-52 2-52l2-9z m87 140l-111 105c-3 2-7 2-9 0l-82-86c-2-3-2-7 0-9l111-105c4-2 8-2 10 0l81 85c2 4 2 8 0 10z m-12-2l-102 97-76-80 102-97z m-134 6l-20 19-7-7 20-19z m21 6l-29 27-6-7 28-27z m1 26l-16 15-7-7 16-15z m20 5l-24 23-7-7 25-23z m-11 37l-7-7 33-31 7 7z m56-93c0-7-3-15-7-20l-20 19z m-26-28c-15 0-28 12-29 27 0 15 12 28 27 29l1-28z m32 37l-28-1-1 27c16 1 29-11 29-26z m-13-28c-5-5-12-9-19-9l-1 28z m-79-212l3 0c-1-6-2-14-1-20 1-7 2-11 0-20-2-9-1-23 11-25 12-1 41 2 49 0 7-1 12 13 11 20-3 7 3 19 4 24 0 5 0 13 0 19l4 0c0-5 0-14 1-20 3-7 20-53-5-50 0 0-4-26-52-20-48 5-37 69-34 74 3 6 8 9 9 18z m41 51c-16 0-35-25-35-25l0 24 2 19c59-8 66-36 66-36-5 8-18 18-33 18z m33 0c0 0 0 17-22 31 0 0 22 10 30 21 0 0 1-24-1-32-2-7-7-20-7-20z m-27 32c0 0-20 15-29 28 0 0-20-26-20-37 0-10 10-28 10-28 0 0 0 9 7 17 6 6 32 20 32 20z m-15 197c0 0 5 0 10-4 3-3 15-9 20-11 2-1 3-1 5-1 5 0 12 1 14 1 4 0 9 4 9 4l10 1c0 0 7 13-18 10l-6 0c0 0 4 3 6 6 2 2 11 1 14 1 3 0 6 0 8-1 1-1 3-3 3-3 0 0 3 3 2 8-1 4-7 10-8 10 0 0 1 4-2 7-3 2-6 2-6 2 0 0-1 3-8 7 0 0-2 4-5 6-3 2-4 3-4 4 0 1-8 2-13 1-5-1-14-3-17-6-3-3-8-5-16-5-8-2-8-2-8-2 0-14 0-28 10-35z m-124-147c3-8 11-11 18-8 8 5 19 13 26 30 12 32 7 52 7 61-1 11-18 43-18 43 0 0 2 7-3 12 0 0 11 6 16 7 5 1 9 0 14 1 6 1 23 3 27 4 3 2 36-2 36-2 0 0-11 21 1 36l-30 10c0 0-8 12-24 9-15-3-22-5-33-7-12-2-16 5-25 1-9-2-15-4-21-7-7-2-15-4-17-14-3-8-4-21-3-30 3-8 11-67 14-78 3-8 8-48 15-68z m204 176c-5-1-10-4-14-7l-48-48 7-7 48 48c3 4 5 9 7 14z m-61-64l3 3-4 4-3-3c-1-1-1-3 0-4 2-1 3-1 4 0z m58 44c-1 4-7 9-8 9 0 0 1 5-2 8-3 2-6 2-6 2 0 0-1 3-8 5 0 0-2 5-5 7-3 2-4 3-4 4-1 1-8 2-13 1-6-1-14-3-17-6-1-1-2-1-3-2l32-39c0 0 4 3 6 5 2 2 11 2 14 2 3 0 6 0 7-2 3-1 4-2 4-2 0 0 4 4 3 8z"/>
    </symbol>
  
    <symbol id="fontastic-slide" viewBox="0 0 512 512">
      <path d="m147 52c0 28-23 52-51 52-29 0-52-24-52-52 0-29 23-52 52-52 28 0 51 23 51 52z m314 217c-21-16-44-28-69-36-8-3-16-3-24 0-2 0-4-1-6-1-25 1-50 7-72 17-2-3-4-7-7-11-9-14-19-27-29-41 25-19 44-44 56-74 15-35-41-55-56-20-7 19-19 34-35 45-5-7-10-15-16-22 32-23 61-49 88-77 26-27-19-63-44-36-34 35-73 65-114 92-3 1-6 3-8 6-22 19-21 48-5 71 29 41 58 81 87 122 5 7 12 12 20 15 40 43 55 94 52 156-2 38 57 42 59 4 3-63-9-119-41-167 21-15 44-22 70-22 4 0 7-1 10-2 17 6 33 15 47 25 13 9 31 9 41-4 9-12 8-31-4-40z m-325 222c-18-3-36-8-54-14-8-3-17-7-24-12-8-5-15-11-17-21-1 5 0 10 3 15 2 4 6 8 9 12 8 6 16 12 25 16 18 9 37 14 55 18 20 4 39 6 58 7 19 0 39 0 58-3-19-3-38-6-57-8-19-3-37-6-56-10z m54-35c-11-3-22-5-32-8-5-2-11-4-15-6-5-3-9-6-11-12-2 6 2 13 6 17 5 5 10 8 15 11 11 6 23 9 34 12 12 2 24 3 35 3 12 0 24-1 35-4-11-3-22-5-34-7z"/>
    </symbol>
  
    <symbol id="fontastic-004-mountain-house" viewBox="0 0 512 512">
      <path d="m510 245l-44-43c-1-1-2-1-3-2l-379-86c0 0-2-1-4 0-2 1-3 3-3 3l-76 118c-1 2-1 5 0 7 1 2 3 3 5 3 1 0 1 0 2 0l7-2 0 107c0 3 2 6 4 6l129 42c0 0 2 1 2 1 1 0 2 0 2 0l209-39 55 7c0 0 0 0 1 0 0 0 1 0 1 0l80-19c3 0 5-3 5-6l0-86 2 0c0 0 1 0 1 0 0 0 0 0 0 0 3 0 6-3 6-7 0-1-1-3-2-4z m-449 79c0 1 0 2-1 2 0 0-1 0-1 0 0 0 0 0-1 0l-26-4c-1 0-1-1-1-2l0-35c0 0 0-1 0-1 1-1 1-1 2-1l26 1c1 0 2 1 2 2l0 38z m63 12c0 0 0 1-1 1 0 1 0 1-1 1 0 0 0 0 0 0l-40-7c-1-1-1-1-1-2l0-42c0-1 0-1 0-2 1 0 1 0 2 0l39 1c1 0 2 1 2 2l0 48z m137-6c0 1-1 2-2 2l-72 7c0 0 0 0 0 0-1 0-1 0-2 0 0-1 0-1 0-2l0-49c0-1 1-2 2-2l72-1c1 0 1 0 2 1 0 0 0 0 0 1z m80-9c0 2-1 2-2 3l-50 5c0 0 0 0 0 0-1 0-1 0-2-1 0 0 0-1 0-1l0-41c0-1 1-2 2-2l50-1c1 0 1 1 2 1 0 0 0 1 0 2z m76-88l-56-5-207-22-56-76 360 82 30 29z m40 90c0 1-1 2-2 2l-19 3c0 0 0 0-1 0 0 0-1 0-1-1 0 0-1-1-1-1l0-28c0-1 1-2 2-2l20-2c0 0 1 1 1 1 1 0 1 1 1 2l0 26z m32-5c0 1 0 2-1 2l-16 3c0 0 0 0 0 0-1 0-1-1-2-1 0 0 0-1 0-2l0-25c0-1 1-2 2-2l15-1c1 0 1 1 2 1 0 0 0 1 0 2l0 23z"/>
    </symbol>
  
    <symbol id="fontastic-workers-with-safety-helmets" viewBox="0 0 512 512">
      <path d="m314 188l171 0c0-63-36-110-93-126l-21 77 5-97c-29-12-54 0-54 0l6 97-21-77c-17 5-33 13-46 23 30 25 49 61 53 103z m198 11l-201 0 0 9 31 0 0 48-34 0c-1 9-2 36-4 43 5 14 4 32-2 53-2 11-5 20-11 28-3 15-9 29-16 42 20 21 46 34 72 34 53 0 106-49 117-108 3-5 8-11 9-22 4-14 7-33 0-44 2-9 5-22 5-36 1-2 1-4 1-7 0-1 0-2 0-3l0-2c0 0 0-1 0-2l-2-7 35 0 0-26z m-310-117l-21 77 5-98c-28-12-53 0-53 0l5 98-21-77c-57 16-94 62-94 125l273 0c0-62-37-109-94-125z m81 219c3-9 5-21 6-35 1-2 1-5 0-7 0-2 0-3 0-4l0-1c0-1 0-2 0-3l-2-7 35 0 0-26-322 0 0 26 35 0 0 8c0 1 0 4 0 5-2 7-1 11 4 42 0 1-1 1-1 2-9 11-5 32-1 44 2 11 6 18 9 22 10 58 61 108 111 108 53 0 106-49 117-108 4-4 8-11 10-21 3-15 6-34-1-45z"/>
    </symbol>
  
    <symbol id="fontastic-draft" viewBox="0 0 512 512">
      <path d="m304 173c3 0 5-2 7-3 2-2 3-5 3-7 0-3-1-6-3-8-2-1-4-2-7-2-3 0-5 1-7 2-2 2-3 5-3 8 0 2 1 5 3 7 2 1 4 3 7 3z m-240 0c2 0 4 0 5-1l30-19 0 2c1 6 5 10 10 13 5 2 11 1 16-2l11-8c1 4 4 8 8 10 4 2 9 3 14 1l28-10c0 3 1 5 3 8 3 3 8 6 13 6l62 0c5 0 10-5 10-10 0-6-5-10-10-10l-58 0c-1-5-3-9-6-12-5-4-11-5-17-3l-28 11c-1-6-5-10-10-13-5-2-11-1-16 2l-11 8 0-2c-1-5-5-10-10-12-5-2-11-2-16 1l-33 22c-5 3-6 9-3 14 1 3 5 4 8 4z m0 87c2 0 4 0 5-1l30-19 0 2c1 6 5 10 10 13 5 2 11 1 16-2l11-8c1 4 4 8 8 10 4 3 9 3 14 1l28-10c0 3 1 6 3 8 3 4 8 6 13 6l102 0c5 0 10-5 10-10 0-6-5-10-10-10l-98 0c-1-5-3-9-6-12-5-3-11-5-17-2l-28 10c-1-6-5-10-10-12-5-3-11-2-16 1l-11 8 0-1c-1-6-5-11-10-13-5-2-11-2-16 1l-33 22c-5 3-6 9-3 14 1 3 5 4 8 4z m0 87c2 0 4 0 5-1l30-19 0 2c1 6 5 11 10 13 5 2 11 1 16-2l11-8c1 4 4 8 8 10 4 3 9 3 14 1l28-10c0 3 1 6 3 8 3 4 8 6 13 6l74 0c5 0 10-5 10-10 0-6-5-10-10-10l-70 0c-1-5-3-9-6-12-5-3-11-4-17-2l-28 10c-1-5-5-10-10-12-5-3-11-2-16 1l-11 8 0-1c-1-6-5-11-10-13-5-2-11-2-16 1l-33 22c-5 3-6 9-3 14 1 3 5 4 8 4z m144 67l-2 0c-1-4-3-9-6-11-5-4-11-5-17-3l-28 10c-1-5-5-10-10-12-5-2-11-2-16 2l-11 8 0-2c-1-6-5-10-10-13-5-2-11-2-16 1l-33 22c-5 3-6 9-3 14 1 3 5 5 8 5 2 0 4-1 5-2l30-19 0 2c1 6 5 11 10 13 5 2 11 2 16-2l11-8c1 4 4 8 8 10 4 3 9 3 14 2l28-11c0 3 1 6 3 8 3 4 8 6 13 6l6 0c6 0 10-5 10-10 0-6-4-10-10-10z m293-203c-15-15-39-15-54 0l-83 83 0-244c0-17-14-30-30-30l-20 0 0-10c0-5-5-10-10-10-6 0-10 5-10 10l0 10-28 0 0-10c0-5-5-10-10-10-6 0-10 5-10 10l0 10-28 0 0-10c0-5-5-10-10-10-6 0-10 5-10 10l0 10-28 0 0-10c0-5-4-10-10-10-6 0-10 5-10 10l0 10-28 0 0-10c0-5-4-10-10-10-6 0-10 5-10 10l0 10-28 0 0-10c0-5-4-10-10-10-6 0-10 5-10 10l0 10-24 0c-17 0-30 13-30 30l0 452c0 5 4 10 10 10l344 0c5 0 10-5 10-10l0-100 41-41c4-4 4-10 0-14-4-4-10-4-14 0l-62 61-25-25 137-137 25 25-19 19c-4 4-4 10 0 14 4 4 11 4 14 0l40-39c15-15 15-39 0-54z m-157 281l-324 0 0-442c0-5 4-10 10-10l24 0 0 24c0 6 4 10 10 10 6 0 10-4 10-10l0-24 28 0 0 24c0 6 4 10 10 10 6 0 10-4 10-10l0-24 28 0 0 24c0 6 4 10 10 10 6 0 10-4 10-10l0-24 28 0 0 24c0 6 4 10 10 10 5 0 10-4 10-10l0-24 28 0 0 24c0 6 4 10 10 10 5 0 10-4 10-10l0-24 28 0 0 24c0 6 4 10 10 10 5 0 10-4 10-10l0-24 20 0c5 0 10 5 10 10l0 264-61 62c-1 0-2 1-2 2l-40 80c-2 3-1 8 2 11 2 2 4 3 7 3 2 0 3 0 4-1l80-40c1 0 2-1 2-2l8-7z m-52-92l20 20-40 20z m195-149l-7 6-25-25 6-7c7-7 19-7 26 0 7 7 7 19 0 26z m-61 64c-3 0-5 2-7 3-2 2-3 5-3 7 0 3 1 6 3 8 2 1 4 2 7 2 3 0 5-1 7-2 2-2 3-5 3-8 0-2-1-5-3-7-2-1-4-3-7-3z"/>
    </symbol>
  
</svg>
